<svg width="16" height="16" viewBox="0 0 16 16" fill="none" xmlns="http://www.w3.org/2000/svg">
<path d="M13.8063 9.32641V1.62237C13.8063 1.0025 13.3038 0.5 12.6839 0.5C12.064 0.5 11.5615 1.0025 11.5615 1.62237V8.58473C11.969 9.0552 12.2863 9.6132 12.4793 10.2051H15.0578C15.3005 10.2051 15.4972 10.0084 15.4972 9.76578C15.4972 9.52312 15.3005 9.32641 15.0578 9.32641H13.8063Z" fill="#A7D7CF"/>
<path d="M7.99845 7.83228C5.88444 7.83228 4.16455 9.55214 4.16455 11.6661C4.16455 13.7801 5.88444 15.5 7.99845 15.5C10.1125 15.5 11.8323 13.7801 11.8323 11.6661C11.8323 9.55214 10.1125 7.83228 7.99845 7.83228ZM7.99845 11.2268C8.81632 11.2268 9.4817 11.8922 9.4817 12.71C9.4817 13.375 9.04186 13.9391 8.43782 14.1268V14.3572C8.43782 14.5999 8.2411 14.7966 7.99845 14.7966C7.75579 14.7966 7.55908 14.5999 7.55908 14.3572V14.1268C7.09185 13.9816 6.72283 13.6112 6.57967 13.1431C6.5087 12.911 6.71191 12.7101 6.95457 12.7101C7.19722 12.7101 7.38559 12.9304 7.54695 13.1116C7.65776 13.2361 7.81911 13.3146 7.99845 13.3146C8.33178 13.3146 8.60296 13.0434 8.60296 12.7101C8.60296 12.3767 8.33178 12.1055 7.99845 12.1055C7.18058 12.1055 6.5152 11.4401 6.5152 10.6223C6.5152 9.95729 6.95504 9.39317 7.55908 9.20548V8.97507C7.55908 8.73242 7.75579 8.5357 7.99845 8.5357C8.2411 8.5357 8.43782 8.73242 8.43782 8.97507V9.20548C8.90505 9.35067 9.27406 9.7211 9.41723 10.1892C9.4882 10.4213 9.28498 10.6223 9.04233 10.6223C8.79967 10.6223 8.61131 10.4019 8.44994 10.2207C8.33914 10.0962 8.17779 10.0178 7.99845 10.0178C7.66511 10.0178 7.39394 10.2889 7.39394 10.6223C7.39394 10.9556 7.66511 11.2268 7.99845 11.2268Z" fill="#A7D7CF"/>
<path d="M4.43571 8.58475V7.44549C4.43571 6.82562 3.93321 6.32312 3.31335 6.32312C2.69348 6.32312 2.19098 6.82562 2.19098 7.44549V9.32644H0.939368C0.696712 9.32644 0.5 9.52315 0.5 9.7658C0.5 10.0085 0.696712 10.2052 0.939368 10.2052H3.51787C3.71093 9.61305 4.02801 9.05549 4.43571 8.58475Z" fill="#A7D7CF"/>
<path d="M10.6828 3.5633C10.6828 2.94342 10.1802 2.44092 9.56037 2.44092C8.9405 2.44092 8.43799 2.94343 8.43799 3.5633V6.97406C9.26675 7.05106 10.0339 7.34351 10.6828 7.79477V3.5633Z" fill="#A7D7CF"/>
<path d="M7.55921 5.50458C7.55921 4.88471 7.05671 4.3822 6.43683 4.3822C5.81696 4.3822 5.31445 4.88471 5.31445 5.50458V7.79501C5.96334 7.34372 6.73045 7.05128 7.55921 6.9743V5.50458Z" fill="#A7D7CF"/>
</svg>
