<svg width="16" height="15" viewBox="0 0 16 15" fill="none" xmlns="http://www.w3.org/2000/svg">
<path fill-rule="evenodd" clip-rule="evenodd" d="M1.99995 7.49996L2.75399 12.8847C2.82528 14.0729 3.80964 15 4.99995 15H10.9999C12.1903 15 13.1746 14.0729 13.2459 12.8847L13.9999 7.49996L14.9519 7.26198C15.7705 7.05733 15.9833 5.99335 15.3064 5.4896L8.93699 0.749595C8.38916 0.311333 7.61073 0.311333 7.06291 0.749595L0.693545 5.4896C0.0166421 5.99335 0.22944 7.05733 1.04802 7.26198L1.99995 7.49996ZM8.65113 6.74704C8.85664 6.3874 8.73169 5.92926 8.37206 5.72376C8.01242 5.51825 7.55428 5.6432 7.34877 6.00283L5.84877 8.62783C5.71612 8.85996 5.71708 9.14515 5.85127 9.37638C5.98546 9.60762 6.2326 9.74994 6.49995 9.74994H8.36255L7.68559 11.3295C7.52243 11.7102 7.69879 12.1511 8.07951 12.3143C8.46023 12.4775 8.90114 12.3011 9.06431 11.9204L10.1893 9.29538C10.2886 9.06365 10.2649 8.79754 10.1261 8.58707C9.9873 8.3766 9.75206 8.24994 9.49995 8.24994H7.79234L8.65113 6.74704Z" fill="#A7D7CF"/>
</svg>
