<svg width="16" height="16" viewBox="0 0 16 16" fill="none" xmlns="http://www.w3.org/2000/svg">
<path d="M12.477 0.5H3.52302C1.86161 0.5 0.5 1.86161 0.5 3.52302V12.477C0.5 14.1384 1.86161 15.5 3.52302 15.5H12.477C14.1384 15.5 15.5 14.1384 15.5 12.477V3.52302C15.5 1.86161 14.1384 0.5 12.477 0.5ZM9.01117 7.64264V12.2452C9.01117 13.5829 6.98883 13.5829 6.98883 12.2452V7.64264C6.98883 6.305 9.01117 6.305 9.01117 7.64264ZM8.00011 3.44095C8.58761 3.44095 9.06365 3.91721 9.06365 4.50471C9.06365 5.09221 8.58761 5.56825 8.00011 5.56825C7.41261 5.56825 6.93635 5.09221 6.93635 4.50471C6.93635 3.91721 7.41261 3.44095 8.00011 3.44095Z" fill="#A7D7CF"/>
</svg>
