<svg width="16" height="16" viewBox="0 0 16 16" fill="none" xmlns="http://www.w3.org/2000/svg">
<path d="M14.1364 0.498779H1.86364C1.50198 0.498779 1.15513 0.642448 0.8994 0.898179C0.643668 1.15391 0.5 1.50076 0.5 1.86242V14.1351C0.5 14.4968 0.643668 14.8436 0.8994 15.0994C1.15513 15.3551 1.50198 15.4988 1.86364 15.4988H14.1364C14.498 15.4988 14.8449 15.3551 15.1006 15.0994C15.3563 14.8436 15.5 14.4968 15.5 14.1351V1.86242C15.5 1.50076 15.3563 1.15391 15.1006 0.898179C14.8449 0.642448 14.498 0.498779 14.1364 0.498779ZM14.1364 14.1351H1.86364V1.86242H14.1364V14.1351Z" fill="#A7D7CF"/>
<path d="M4.59069 12.7727H11.4089C11.7705 12.7727 12.1174 12.6291 12.3731 12.3733C12.6288 12.1176 12.7725 11.7708 12.7725 11.4091V10.7273C12.9533 10.7273 13.1268 10.6555 13.2546 10.5276C13.3825 10.3997 13.4543 10.2263 13.4543 10.0455V9.36366C13.4543 9.18283 13.3825 9.00941 13.2546 8.88154C13.1268 8.75367 12.9533 8.68184 12.7725 8.68184V7.3182C12.9533 7.3182 13.1268 7.24637 13.2546 7.1185C13.3825 6.99064 13.4543 6.81722 13.4543 6.63639V5.95457C13.4543 5.77374 13.3825 5.60032 13.2546 5.47245C13.1268 5.34458 12.9533 5.27275 12.7725 5.27275V4.59093C12.7725 4.22927 12.6288 3.88243 12.3731 3.6267C12.1174 3.37096 11.7705 3.22729 11.4089 3.22729H4.59069C4.22903 3.22729 3.88218 3.37096 3.62645 3.6267C3.37072 3.88243 3.22705 4.22927 3.22705 4.59093V11.4091C3.22705 11.7708 3.37072 12.1176 3.62645 12.3733C3.88218 12.6291 4.22903 12.7727 4.59069 12.7727ZM7.99978 4.59093C8.67403 4.59093 9.33314 4.79087 9.89377 5.16547C10.4544 5.54006 10.8913 6.07249 11.1494 6.69542C11.4074 7.31835 11.4749 8.0038 11.3434 8.6651C11.2118 9.3264 10.8871 9.93384 10.4104 10.4106C9.9336 10.8874 9.32616 11.2121 8.66486 11.3436C8.00356 11.4751 7.31811 11.4076 6.69518 11.1496C6.07225 10.8916 5.53982 10.4546 5.16522 9.89401C4.79063 9.33339 4.59069 8.67428 4.59069 8.00002C4.59069 7.09588 4.94986 6.22876 5.58919 5.58943C6.22852 4.9501 7.09563 4.59093 7.99978 4.59093Z" fill="#A7D7CF"/>
<path d="M9.40473 9.46601C9.74057 9.12394 9.9456 8.67479 9.98402 8.19697C10.0224 7.71914 9.89183 7.24299 9.61497 6.85166C9.33811 6.46032 8.9326 6.17865 8.46923 6.05583C8.00587 5.93301 7.51408 5.97683 7.07973 6.17965L8.44337 7.54328C8.55507 7.67372 8.61343 7.84149 8.60681 8.01309C8.60018 8.18469 8.52904 8.34747 8.40761 8.46889C8.28619 8.59032 8.12341 8.66146 7.95181 8.66809C7.78022 8.67471 7.61244 8.61635 7.482 8.50465L6.11837 7.14101C5.91555 7.57536 5.87173 8.06715 5.99455 8.53051C6.11738 8.99388 6.39904 9.39939 6.79038 9.67625C7.18172 9.95311 7.65786 10.0837 8.13569 10.0453C8.61351 10.0069 9.06267 9.80185 9.40473 9.46601Z" fill="#A7D7CF"/>
</svg>
