<svg width="16" height="16" viewBox="0 0 16 16" fill="none" xmlns="http://www.w3.org/2000/svg">
<path d="M1.26606 9.58257C1.09586 9.58347 0.931118 9.52252 0.802443 9.41106C0.673767 9.29959 0.589903 9.14519 0.566429 8.97653C0.311235 7.07677 0.797151 5.15165 1.92328 3.60091C3.07325 2.01937 4.79301 0.947408 6.71878 0.611768C8.64456 0.276128 10.6253 0.703135 12.242 1.80247L12.5585 1.3646C12.5825 1.33125 12.615 1.30501 12.6526 1.28866C12.6903 1.27231 12.7316 1.26647 12.7723 1.27175C12.813 1.27703 12.8515 1.29325 12.8837 1.31866C12.9159 1.34408 12.9407 1.37776 12.9553 1.41611L13.7912 3.58727C13.8036 3.62223 13.8072 3.65969 13.8018 3.69639C13.7964 3.73308 13.7821 3.76789 13.7601 3.79778C13.7382 3.82767 13.7093 3.85172 13.6759 3.86785C13.6425 3.88398 13.6057 3.89168 13.5686 3.89029L11.2471 3.77666C11.2062 3.77465 11.1666 3.76162 11.1325 3.73895C11.0984 3.71627 11.0711 3.68479 11.0534 3.64784C11.0357 3.61089 11.0283 3.56984 11.032 3.52904C11.0357 3.48824 11.0504 3.4492 11.0745 3.41606L11.3879 2.99486C10.0874 2.11954 8.49842 1.78267 6.95484 2.05504C5.41127 2.32741 4.0333 3.18781 3.11053 4.45543C2.94113 4.69302 2.78929 4.94267 2.65623 5.20238H4.54916C4.57339 5.20214 4.59726 5.20829 4.61836 5.22023C4.63945 5.23216 4.65703 5.24945 4.66931 5.27034C4.6816 5.29124 4.68816 5.31501 4.68834 5.33926C4.68851 5.3635 4.68229 5.38736 4.67031 5.40844C4.53092 5.65753 4.49607 5.9518 4.57339 6.2266C4.62193 6.35975 4.6994 6.48047 4.80022 6.58003C4.90105 6.6796 5.0227 6.75553 5.15641 6.80234C5.39705 6.89142 5.65406 6.92752 5.90992 6.90817C6.16577 6.88883 6.41444 6.81448 6.63896 6.69022L8.06244 5.89327C8.08252 5.8819 8.10596 5.87794 8.12865 5.8821C8.15135 5.88625 8.17187 5.89825 8.18662 5.916L11.1623 9.55227L11.5303 9.9962C11.5874 10.0622 11.6295 10.1397 11.6539 10.2235C11.6782 10.3073 11.6842 10.3954 11.6714 10.4817C11.6586 10.568 11.6273 10.6505 11.5797 10.7236C11.5321 10.7967 11.4693 10.8587 11.3955 10.9053C11.2784 10.9747 11.1416 11.0034 11.0065 10.9866C10.8713 10.9699 10.7456 10.9088 10.6489 10.8128L10.599 10.7644C10.5969 10.7629 10.5944 10.7621 10.5919 10.7621C10.5893 10.762 10.5868 10.7626 10.5846 10.7638C10.5824 10.7651 10.5806 10.767 10.5794 10.7692C10.5782 10.7714 10.5776 10.7739 10.5778 10.7765C10.6 10.8937 10.5872 11.0149 10.5408 11.1249C10.4945 11.2349 10.4167 11.3287 10.3173 11.3947C10.1982 11.469 10.0575 11.5007 9.91809 11.4848C9.77866 11.4688 9.64875 11.4061 9.54953 11.3068L9.5041 11.2628C9.50199 11.2614 9.49953 11.2606 9.497 11.2605C9.49446 11.2604 9.49195 11.2611 9.48974 11.2623C9.48754 11.2636 9.48573 11.2654 9.48452 11.2677C9.48331 11.2699 9.48275 11.2724 9.4829 11.275C9.50514 11.3922 9.49229 11.5134 9.44595 11.6234C9.39962 11.7334 9.32186 11.8272 9.22243 11.8931C9.10384 11.9674 8.96363 11.9995 8.82455 11.9841C8.68546 11.9687 8.55565 11.9067 8.45617 11.8083L8.41074 11.7643C8.40864 11.7629 8.40618 11.7621 8.40364 11.762C8.4011 11.7619 8.39859 11.7626 8.39639 11.7638C8.39418 11.7651 8.39237 11.7669 8.39117 11.7692C8.38996 11.7714 8.38939 11.7739 8.38954 11.7765C8.41046 11.894 8.39619 12.0152 8.34851 12.1247C8.30083 12.2342 8.22188 12.3272 8.12156 12.3919C8.02125 12.4567 7.90405 12.4903 7.78468 12.4886C7.66532 12.487 7.54911 12.45 7.45065 12.3825L7.50819 12.281C7.6308 12.075 7.68238 11.8345 7.65502 11.5963C7.62766 11.3582 7.52287 11.1356 7.35676 10.9628C7.19877 10.8071 6.99591 10.7048 6.77676 10.6704C6.64118 10.4381 6.42164 10.2667 6.16345 10.1916C6.11365 10.0175 6.01972 9.85918 5.89078 9.73203C5.76183 9.60488 5.60225 9.51321 5.42748 9.46591C5.36197 9.2271 5.21386 9.01931 5.00952 8.87956C4.78208 8.73867 4.51144 8.6847 4.24739 8.72757C3.98334 8.77044 3.74365 8.90727 3.57241 9.11289L3.18776 9.58409H1.26606V9.58257ZM4.68091 9.30682C4.57134 9.24575 4.4436 9.22578 4.32063 9.2505C4.19767 9.27521 4.08754 9.343 4.01005 9.44167L3.61027 9.93257C3.56754 9.98477 3.53567 10.045 3.51655 10.1097C3.49742 10.1744 3.49142 10.2423 3.4989 10.3093C3.50638 10.3764 3.52718 10.4413 3.56009 10.5001C3.593 10.559 3.63735 10.6108 3.69053 10.6522L3.7511 10.7007C3.83073 10.7632 3.92727 10.8004 4.02824 10.8074C4.12921 10.8145 4.22996 10.791 4.31747 10.7401C4.32151 10.7376 4.32619 10.7364 4.33093 10.7366C4.33567 10.7367 4.34026 10.7383 4.34412 10.741C4.34799 10.7438 4.35097 10.7476 4.35269 10.752C4.35442 10.7564 4.3548 10.7612 4.35381 10.7659C4.33583 10.8577 4.34357 10.9527 4.37617 11.0404C4.40877 11.1281 4.46497 11.2051 4.53856 11.2628L4.58853 11.3022C4.66504 11.3625 4.75721 11.3995 4.85411 11.4089C4.95101 11.4183 5.04857 11.3997 5.13521 11.3553C5.13937 11.353 5.14407 11.3519 5.14879 11.3522C5.15351 11.3524 5.15808 11.3539 5.16199 11.3566C5.16591 11.3592 5.16901 11.3629 5.17096 11.3672C5.17292 11.3716 5.17365 11.3763 5.17307 11.381C5.16411 11.4669 5.17706 11.5536 5.21069 11.6331C5.24432 11.7126 5.29755 11.7822 5.36539 11.8355L5.40022 11.8628C5.47773 11.9235 5.57103 11.9606 5.66903 11.9698C5.76703 11.9789 5.86559 11.9597 5.95296 11.9143C5.95709 11.9117 5.9618 11.9102 5.96667 11.91C5.97154 11.9097 5.9764 11.9107 5.98079 11.9128C5.98518 11.9149 5.98896 11.9181 5.99177 11.9221C5.99458 11.9261 5.99634 11.9307 5.99688 11.9355C6.01664 12.0629 6.08369 12.1782 6.18465 12.2583L6.20586 12.2749C6.26444 12.3208 6.33221 12.3535 6.40457 12.3709C6.47692 12.3882 6.55216 12.3897 6.62516 12.3753C6.69816 12.361 6.76721 12.331 6.8276 12.2876C6.88799 12.2441 6.93832 12.1881 6.97514 12.1234L7.04935 11.9916C7.11217 11.8873 7.13756 11.7647 7.12132 11.6441C7.10507 11.5234 7.04816 11.4119 6.96 11.328C6.88546 11.2601 6.79263 11.2155 6.69303 11.1999C6.59342 11.1843 6.49143 11.1983 6.39969 11.2401C6.39729 11.2412 6.39465 11.2416 6.39203 11.2413C6.38942 11.241 6.38692 11.2401 6.38478 11.2386C6.38264 11.237 6.38093 11.235 6.37983 11.2326C6.37873 11.2302 6.37827 11.2276 6.37849 11.225C6.38346 11.1396 6.36685 11.0543 6.33019 10.977C6.29353 10.8998 6.23801 10.833 6.16874 10.7829C6.09947 10.7327 6.01869 10.7009 5.93387 10.6902C5.84904 10.6796 5.7629 10.6905 5.68341 10.7219C5.60769 10.7356 5.62435 10.6689 5.62435 10.6689C5.6644 10.5714 5.67323 10.4639 5.64961 10.3612C5.626 10.2585 5.57109 10.1656 5.49249 10.0955C5.41388 10.0253 5.31544 9.98127 5.21076 9.96946C5.10608 9.95765 5.00031 9.97864 4.90806 10.0295C4.85052 10.0371 4.85809 9.98559 4.85809 9.98559C4.92195 9.87148 4.93917 9.73705 4.90614 9.61051C4.87311 9.48396 4.79239 9.37513 4.68091 9.30682ZM15.1844 5.84176L15.136 5.69025C15.0887 5.54975 14.9985 5.42765 14.8781 5.3412C14.7577 5.25475 14.6133 5.20831 14.4651 5.20844H12.7993C12.5809 5.20829 12.3643 5.16824 12.1603 5.09026L9.02708 3.88878C8.7164 3.77023 8.38063 3.73291 8.05152 3.78037C7.72242 3.82783 7.41084 3.95848 7.14626 4.15998L5.17761 5.6554C5.1317 5.69719 5.09691 5.74976 5.07637 5.80836C5.05583 5.86696 5.05019 5.92975 5.05995 5.99108C5.06972 6.05241 5.09458 6.11034 5.13231 6.15965C5.17003 6.20897 5.21943 6.24812 5.27605 6.27357C5.45041 6.34948 5.63995 6.38405 5.82987 6.37459C6.01979 6.36513 6.20496 6.31189 6.37092 6.21902L8.04579 5.28117C8.10719 5.24764 8.1783 5.23642 8.24703 5.2494C8.31577 5.26238 8.37789 5.29877 8.42286 5.35238L12.0739 9.79166C12.0816 9.80114 12.091 9.80901 12.1017 9.81482C12.1124 9.82064 12.1241 9.82429 12.1362 9.82555C12.1483 9.82682 12.1606 9.82568 12.1722 9.82221C12.1839 9.81873 12.1947 9.81298 12.2042 9.8053L12.3556 9.67954C12.4318 9.61768 12.527 9.58397 12.6252 9.58409H13.8109C13.5511 10.5369 13.0616 11.4114 12.3853 12.1308C11.709 12.8502 10.8666 13.3927 9.93199 13.7105C8.99737 14.0283 7.99908 14.1119 7.02468 13.9538C6.05028 13.7957 5.12954 13.4008 4.34321 12.8037L4.67788 12.3886C4.70375 12.3569 4.72058 12.3188 4.72661 12.2783C4.73264 12.2378 4.72763 12.1965 4.71212 12.1586C4.69661 12.1208 4.67118 12.0878 4.6385 12.0632C4.60581 12.0386 4.5671 12.0233 4.52645 12.0189L2.21404 11.7825C2.17564 11.7782 2.13677 11.7837 2.10109 11.7985C2.06542 11.8134 2.03413 11.8371 2.01017 11.8675C1.98622 11.8978 1.97039 11.9337 1.9642 11.9719C1.95801 12.0101 1.96164 12.0492 1.97477 12.0855L2.68803 14.2991C2.70226 14.337 2.72634 14.3703 2.75776 14.3958C2.78919 14.4212 2.82683 14.4378 2.86681 14.4438C2.90678 14.4498 2.94763 14.4451 2.98515 14.43C3.02267 14.415 3.0555 14.3902 3.08024 14.3582L3.41946 13.9385C4.67662 14.9084 6.20891 15.4541 7.79579 15.4972C9.38268 15.5404 10.9423 15.0786 12.2502 14.1785C13.5582 13.2784 14.5469 11.9863 15.0742 10.4882C15.6015 8.99006 15.64 7.36321 15.1844 5.84176Z" fill="#A7D7CF"/>
</svg>
